<svg width="30" height="23" viewBox="0 0 30 23" fill="none" xmlns="http://www.w3.org/2000/svg">
<path fill-rule="evenodd" clip-rule="evenodd" d="M9.79039 2.00161C9.78772 2.00011 9.78458 1.99964 9.78158 2.00029L9.7794 2.00077C8.57207 2.26236 7.39011 2.62973 6.2472 3.09861C6.24368 3.10006 6.24014 3.10149 6.23659 3.10289L2.00061 17.2478C1.99993 17.2501 1.99982 17.2528 2.00048 17.2551C2.00107 17.2572 2.00218 17.2591 2.00371 17.2606C3.7834 18.8075 6.27579 20.0431 9.21113 20.763L9.21221 20.7608L10.7247 17.7608C10.9733 17.2676 11.5747 17.0694 12.0678 17.318C12.561 17.5666 12.7592 18.168 12.5106 18.6611L11.0023 21.6527C10.8044 22.0615 10.4717 22.3897 10.0599 22.5818C9.64643 22.7748 9.17898 22.8186 8.737 22.706C5.55506 21.926 2.75369 20.5643 0.686224 18.7653L0.681046 18.7608C0.39258 18.5063 0.183115 18.1745 0.077433 17.8046C-0.0282217 17.4348 -0.0257056 17.0425 0.0846798 16.6741C0.0846515 16.6742 0.0847082 16.674 0.0846798 16.6741L4.32058 2.52941C4.4051 2.23711 4.55645 1.96843 4.7627 1.74462C4.96676 1.5232 5.21898 1.35176 5.49978 1.24348C6.74764 0.732336 8.03796 0.331678 9.35589 0.046122C9.83831 -0.05897 10.3426 0.0169388 10.7727 0.259455C11.2034 0.502336 11.5297 0.895321 11.6892 1.36342L11.6922 1.37209L12.6796 4.3596C12.853 4.88398 12.5684 5.44959 12.044 5.62292C11.5196 5.79625 10.954 5.51167 10.7807 4.98729L9.79576 2.00761C9.79468 2.00508 9.7928 2.00297 9.79039 2.00161Z" fill="#858584"/>
<path fill-rule="evenodd" clip-rule="evenodd" d="M19.2116 0.259456C19.6421 0.0167574 20.1468 -0.0590844 20.6295 0.0463592C21.9471 0.3319 23.237 0.732478 24.4845 1.24348C24.7653 1.35176 25.0176 1.5232 25.2216 1.74462C25.4279 1.96842 25.5792 2.2371 25.6637 2.52939L29.8996 16.6738C30.01 17.0423 30.0126 17.4347 29.9069 17.8046C29.8012 18.1745 29.5917 18.5063 29.3033 18.7608L29.2981 18.7654C27.2306 20.5643 24.4293 21.926 21.2473 22.706C20.8053 22.8186 20.3379 22.7748 19.9244 22.5818C19.5127 22.3897 19.1799 22.0614 18.982 21.6527L17.4737 18.6611C17.2251 18.168 17.4233 17.5666 17.9165 17.318C18.4096 17.0694 19.011 17.2676 19.2596 17.7608L20.7721 20.7608L20.7732 20.763C23.7111 20.0425 26.2053 18.8054 27.9853 17.2566L28.6417 18.0109L27.9801 17.2611C27.9819 17.2595 27.9832 17.2574 27.9838 17.2551C27.9845 17.2528 27.9845 17.2504 27.9838 17.2481L23.7477 3.1029C23.7442 3.10149 23.7406 3.10006 23.7371 3.09861C22.5942 2.62973 21.4123 2.26236 20.2049 2.00077L20.2027 2.00029C20.1997 1.99964 20.1966 2.00011 20.1939 2.00162C20.1915 2.00297 20.1896 2.00509 20.1886 2.00762L19.2037 4.98729C19.0303 5.51167 18.4647 5.79625 17.9403 5.62292C17.416 5.44959 17.1314 4.88398 17.3047 4.3596L18.2951 1.36341C18.4546 0.89531 18.7809 0.502338 19.2116 0.259456Z" fill="#858584"/>
<path fill-rule="evenodd" clip-rule="evenodd" d="M7.33803 17.1504C7.5032 16.6234 8.06432 16.3301 8.59133 16.4953C10.66 17.1436 12.817 17.4655 14.9849 17.4495H14.9997C17.1675 17.4655 19.3245 17.1436 21.3932 16.4953C21.9202 16.3301 22.4813 16.6234 22.6465 17.1504C22.8117 17.6774 22.5183 18.2385 21.9913 18.4037C19.7267 19.1135 17.3654 19.4663 14.9923 19.4495C12.6191 19.4663 10.2578 19.1135 7.99319 18.4037C7.46619 18.2385 7.17286 17.6774 7.33803 17.1504Z" fill="#858584"/>
<path fill-rule="evenodd" clip-rule="evenodd" d="M14.9849 5.44979C12.817 5.43376 10.66 5.75571 8.59133 6.40405C8.06432 6.56922 7.5032 6.27589 7.33803 5.74888C7.17286 5.22188 7.46619 4.66075 7.99319 4.49558C10.2578 3.78583 12.6191 3.43301 14.9923 3.44979C17.3654 3.43301 19.7267 3.78583 21.9913 4.49558C22.5183 4.66075 22.8117 5.22188 22.6465 5.74888C22.4813 6.27589 21.9202 6.56922 21.3932 6.40405C19.3245 5.75571 17.1675 5.43376 14.9997 5.44979H14.9849Z" fill="#858584"/>
<path d="M18.9922 14.9492C19.8206 14.9492 20.4922 14.2776 20.4922 13.4492C20.4922 12.6208 19.8206 11.9492 18.9922 11.9492C18.1638 11.9492 17.4922 12.6208 17.4922 13.4492C17.4922 14.2776 18.1638 14.9492 18.9922 14.9492Z" fill="#858584"/>
<path d="M10.9922 14.9492C11.8206 14.9492 12.4922 14.2776 12.4922 13.4492C12.4922 12.6208 11.8206 11.9492 10.9922 11.9492C10.1638 11.9492 9.49219 12.6208 9.49219 13.4492C9.49219 14.2776 10.1638 14.9492 10.9922 14.9492Z" fill="#858584"/>
</svg>
