<svg width="29" height="29" viewBox="0 0 29 29" fill="none" xmlns="http://www.w3.org/2000/svg">
<g clip-path="url(#clip0_219_1061)">
<path d="M17.0719 14.1297L2.95401 27.7242C2.29289 27.2723 1.90038 26.5208 1.90732 25.7201V2.53921C1.90038 1.7385 2.29289 0.98697 2.95401 0.535156L17.0719 14.1297Z" fill="#2196F3"/>
<path d="M22.0117 9.38142L17.0717 14.1299L2.95386 0.535418C3.00705 0.494192 3.06246 0.455837 3.11978 0.420535C3.86592 -0.0316979 4.79791 -0.0462976 5.55788 0.38224L22.0117 9.38142Z" fill="#4CAF50"/>
<path d="M27.9984 14.1299C28.0076 15.0338 27.5164 15.8687 26.722 16.2999L22.0118 18.8784L17.0718 14.1299L22.0118 9.38135L26.722 11.9598C27.5164 12.391 28.0076 13.2259 27.9984 14.1299Z" fill="#F0BB1F"/>
<path d="M22.0117 18.8784L5.55788 27.8776C4.79624 28.2995 3.86778 28.2849 3.11978 27.8393C3.06246 27.804 3.00705 27.7656 2.95386 27.7244L17.0717 14.1299L22.0117 18.8784Z" fill="#F15A2B"/>
</g>
<defs>
<clipPath id="clip0_219_1061">
<rect width="28.1133" height="28.1133" fill="white" transform="translate(0.89624 0.0708008)"/>
</clipPath>
</defs>
</svg>
